<svg xmlns="http://www.w3.org/2000/svg" viewBox="0 0 2500 2500" version="1.1">
	<path d="M 1224 51.140 C 1151.839 58.562, 1084.906 98.011, 1043.542 157.500 C 1026.138 182.528, 1011.879 213.873, 1005.465 241.201 L 1003.657 248.903 922.579 249.222 C 842.179 249.539, 841.446 249.560, 835 251.735 C 818.914 257.163, 806.137 269.903, 800.788 285.850 C 798.568 292.467, 798.555 292.893, 798.223 370.715 L 797.889 448.931 692.194 449.267 C 574.044 449.642, 581.097 449.226, 562.359 456.918 C 535.744 467.843, 513.770 491.119, 504.639 518.054 C 498.527 536.087, 499 466.257, 499.003 1349.881 C 499.006 2076.958, 499.161 2157.381, 500.570 2165.439 C 504.146 2185.885, 513.106 2203.701, 527.386 2218.758 C 541.654 2233.803, 558.556 2243.221, 581 2248.634 C 588.174 2250.365, 609.475 2250.456, 1070.751 2250.735 C 1596.232 2251.052, 1559.467 2251.439, 1572.500 2245.458 C 1577.984 2242.941, 1596.304 2224.898, 1785.569 2035.602 C 1945.741 1875.405, 1993.238 1827.351, 1995.286 1823.425 C 1996.743 1820.634, 1998.624 1815.702, 1999.467 1812.465 C 2000.836 1807.208, 2001 1739.196, 2001 1174.921 C 2001 483.265, 2001.453 536.027, 1995.361 518.054 C 1986.230 491.119, 1964.256 467.843, 1937.641 456.918 C 1918.903 449.226, 1925.956 449.642, 1807.806 449.267 L 1702.111 448.931 1701.777 370.715 C 1701.445 292.893, 1701.432 292.467, 1699.212 285.850 C 1693.863 269.903, 1681.086 257.163, 1665 251.735 C 1658.554 249.560, 1657.821 249.539, 1577.398 249.222 L 1496.296 248.903 1495.024 243.201 C 1494.324 240.066, 1491.958 231.884, 1489.765 225.020 C 1459.100 129.012, 1374.858 61.035, 1274.144 51.029 C 1262.061 49.828, 1236.194 49.886, 1224 51.140 M 1236 155.058 C 1186.909 159.559, 1140.846 190.723, 1118.834 234.328 C 1108.504 254.792, 1104.558 271.214, 1102.164 303.706 C 1101.363 314.572, 1100.880 316.720, 1097.767 323.275 C 1093.635 331.976, 1084.683 342.006, 1076.832 346.732 C 1073.879 348.509, 1067.912 350.872, 1063.572 351.982 C 1055.995 353.920, 1052.638 354, 979.340 354 L 903 354 903 451.500 L 903 549 1250 549 L 1597 549 1597 451.534 L 1597 354.069 1517.750 353.776 L 1438.500 353.484 1432.581 351.237 C 1419.476 346.264, 1408.221 335.885, 1402.211 323.230 C 1399.123 316.726, 1398.636 314.554, 1397.836 303.706 C 1395.796 276.025, 1393.626 264.667, 1387.301 248.579 C 1379.839 229.600, 1371.003 215.573, 1357.417 201.140 C 1331.799 173.927, 1299.754 158.340, 1262.500 154.972 C 1251.188 153.949, 1247.987 153.959, 1236 155.058 M 444.500 249.660 C 393.099 252.404, 348.010 279.370, 320.979 323.534 C 311.928 338.322, 305.617 355.366, 301.183 377 C 299.808 383.709, 299.608 485.106, 299.292 1339 C 299.062 1959.806, 299.283 2298.246, 299.925 2307.075 C 301.105 2323.331, 302.963 2332.969, 307.620 2346.988 C 321.433 2388.572, 354.911 2423.620, 395.957 2439.466 C 409.472 2444.684, 415.796 2446.368, 429.743 2448.462 C 438.897 2449.836, 526.204 2450, 1250 2450 C 1973.796 2450, 2061.103 2449.836, 2070.257 2448.462 C 2084.204 2446.368, 2090.528 2444.684, 2104.043 2439.466 C 2145.130 2423.604, 2178.270 2388.902, 2192.348 2347 C 2197.021 2333.092, 2198.886 2323.455, 2200.075 2307.075 C 2200.716 2298.248, 2200.944 1959.615, 2200.727 1339 C 2200.422 467.987, 2200.252 383.844, 2198.790 377 C 2193.835 353.814, 2188.116 338.394, 2178.863 323.276 C 2156.319 286.444, 2120.530 261.221, 2078.471 252.524 C 2063.243 249.375, 2042.944 248.889, 1940.500 249.220 C 1846.196 249.525, 1839.135 249.667, 1834 251.359 C 1818.372 256.508, 1805.633 268.554, 1800.009 283.500 C 1796.882 291.809, 1796.182 306.179, 1798.475 315 C 1803.250 333.371, 1819.236 348.610, 1837.878 352.562 C 1843.319 353.715, 1863.238 353.968, 1949.540 353.983 C 2063.780 354.002, 2059.785 353.817, 2071.213 359.608 C 2081.696 364.920, 2091.363 377.256, 2094.639 389.500 C 2095.751 393.658, 2095.978 555.431, 2095.988 1350.145 C 2096 2297.165, 2095.982 2305.847, 2094.036 2312.145 C 2091.685 2319.753, 2087.879 2325.949, 2081.911 2331.890 C 2076.269 2337.505, 2072.080 2340.128, 2063.998 2343.106 L 2057.500 2345.500 1250 2345.500 L 442.500 2345.500 436.002 2343.106 C 427.920 2340.128, 423.731 2337.505, 418.089 2331.890 C 412.121 2325.949, 408.315 2319.753, 405.964 2312.145 C 404.018 2305.847, 404 2297.165, 404.012 1350.145 C 404.022 555.431, 404.249 393.658, 405.361 389.500 C 408.637 377.256, 418.304 364.920, 428.787 359.608 C 440.215 353.817, 436.220 354.002, 550.460 353.983 C 666.074 353.964, 663.328 354.099, 675.270 347.821 C 682.833 343.844, 692.509 334.454, 696.725 327 C 703.565 314.906, 704.937 296.642, 699.991 283.500 C 694.368 268.555, 681.633 256.513, 666 251.357 C 660.837 249.654, 654.062 249.537, 555.500 249.441 C 497.750 249.385, 447.800 249.484, 444.500 249.660 M 603 1350 L 603 2146 1050 2146 L 1497 2146 1497.008 1996.750 C 1497.013 1902.331, 1497.390 1844.194, 1498.032 1838.500 C 1502.911 1795.274, 1531.700 1761.981, 1574.825 1749.693 L 1582.500 1747.506 1739.750 1747.232 L 1897 1746.958 1897 1150.479 L 1897 554 1799.621 554 L 1702.241 554 1701.756 582.250 C 1701.324 607.406, 1701.041 611.213, 1699.169 617.012 C 1693.871 633.425, 1679.417 647.142, 1662.744 651.580 C 1654.877 653.675, 845.123 653.675, 837.256 651.580 C 820.583 647.142, 806.129 633.425, 800.831 617.012 C 798.959 611.213, 798.676 607.406, 798.244 582.250 L 797.759 554 700.379 554 L 603 554 603 1350 M 1588.481 949.470 C 1580.846 951.132, 1576.248 953.060, 1570.261 957.108 C 1567.642 958.879, 1545.250 980.421, 1520.500 1004.980 C 1479.974 1045.192, 1474.896 1049.896, 1469.421 1052.295 C 1456.697 1057.870, 1441.481 1057.718, 1429.275 1051.893 C 1424.136 1049.440, 1420.165 1046.142, 1409.666 1035.603 C 1378.216 1004.036, 1342.737 988.911, 1300.066 988.879 C 1277.662 988.862, 1259.490 992.491, 1240.081 1000.859 C 1220.165 1009.446, 1207.488 1018.258, 1190.998 1034.979 C 1184.673 1041.394, 1177.698 1047.831, 1175.498 1049.282 C 1162.578 1057.812, 1144.363 1058.730, 1129.500 1051.601 C 1123.788 1048.861, 1120.108 1045.867, 1109.500 1035.330 C 1081.661 1007.678, 1051.480 993.384, 1013.346 989.790 C 983.707 986.997, 950.762 994.479, 924.310 1010.010 C 908.475 1019.308, 899.656 1027.190, 853.921 1072.923 C 812.969 1113.873, 807.978 1119.211, 804.763 1125.500 C 799.966 1134.886, 798.909 1139.358, 798.909 1150.276 C 798.910 1169.930, 808.361 1186.194, 825.469 1195.982 C 840.027 1204.311, 861.738 1204.098, 876.714 1195.477 C 879.648 1193.789, 899.300 1175.054, 927.500 1147.062 C 971.195 1103.689, 973.857 1101.239, 980.633 1098.175 C 993.693 1092.271, 1008.799 1092.308, 1021.363 1098.275 C 1027.308 1101.098, 1030.414 1103.590, 1039.038 1112.451 C 1054.160 1127.991, 1068.809 1138.766, 1084.755 1146.077 C 1120.272 1162.362, 1156.913 1165.207, 1193.444 1154.514 C 1219.468 1146.897, 1239.454 1134.537, 1261.259 1112.574 C 1269.331 1104.444, 1274.192 1100.406, 1278.500 1098.251 C 1289.044 1092.978, 1300.468 1091.669, 1311.307 1094.492 C 1321.654 1097.187, 1326.870 1100.623, 1338.500 1112.403 C 1357.730 1131.883, 1375.371 1143.572, 1398 1151.830 C 1436.470 1165.869, 1479.761 1163.449, 1516.732 1145.192 C 1537.841 1134.768, 1545.572 1128.140, 1597.622 1075.839 C 1640.174 1033.083, 1642.952 1030.073, 1646.381 1023 C 1656.177 1002.798, 1652.003 979.544, 1635.715 963.578 C 1622.379 950.505, 1606.082 945.637, 1588.481 949.470 M 1583.798 1349.931 C 1580.661 1350.934, 1575.936 1352.995, 1573.298 1354.512 C 1570.347 1356.208, 1550.984 1374.653, 1523 1402.426 C 1490.073 1435.104, 1476.094 1448.323, 1472.413 1450.264 C 1462.716 1455.378, 1450.424 1457.120, 1439.799 1454.885 C 1429.379 1452.694, 1424.174 1449.422, 1413 1438.041 C 1407.225 1432.159, 1400.025 1425.312, 1397 1422.825 C 1377.852 1407.081, 1353 1395.300, 1328.435 1390.324 C 1314.757 1387.553, 1283.123 1387.809, 1269.312 1390.804 C 1255.707 1393.753, 1243.751 1398.057, 1230.777 1404.674 C 1215.084 1412.678, 1204.086 1420.894, 1189.836 1435.259 C 1179.529 1445.648, 1175.946 1448.598, 1170.586 1451.106 C 1157.154 1457.392, 1142.299 1457.286, 1129.019 1450.808 C 1124.047 1448.383, 1119.970 1445.048, 1111.519 1436.494 C 1099.758 1424.591, 1088.824 1415.845, 1077.500 1409.283 C 1039.795 1387.433, 995.178 1382.678, 953.500 1396.068 C 941.843 1399.813, 923.393 1409.110, 912.840 1416.558 C 902.073 1424.157, 812.596 1512.699, 806.864 1521.428 C 796.094 1537.826, 796.070 1560.976, 806.805 1577.572 C 822.582 1601.961, 855.883 1609.017, 879.594 1592.996 C 882.292 1591.172, 904.750 1569.553, 929.500 1544.953 C 958.664 1515.965, 975.985 1499.480, 978.720 1498.108 C 992.424 1491.231, 1010.818 1491.422, 1023.962 1498.576 C 1026.498 1499.956, 1033.450 1506.038, 1039.410 1512.091 C 1065.626 1538.719, 1092.300 1552.717, 1127.964 1558.565 C 1144.754 1561.319, 1170.719 1560.014, 1187.808 1555.560 C 1216.057 1548.195, 1245.021 1530.638, 1262.892 1510.045 C 1273.375 1497.964, 1284.566 1492.732, 1300 1492.694 C 1315.623 1492.656, 1325.981 1497.781, 1338.765 1511.874 C 1375.075 1551.904, 1433.343 1569.062, 1487.036 1555.537 C 1497.718 1552.847, 1509.943 1548.155, 1520 1542.886 C 1539.539 1532.650, 1545.468 1527.544, 1594.162 1479.011 C 1623.105 1450.164, 1641.117 1431.445, 1643.355 1427.887 C 1648.991 1418.928, 1651.211 1411.040, 1651.203 1400 C 1651.190 1380.708, 1642.670 1365.361, 1626.159 1354.884 C 1615.398 1348.056, 1596.552 1345.853, 1583.798 1349.931 M 1602 1961.248 L 1602 2071.497 1712 1961.500 C 1772.500 1901.002, 1822 1851.390, 1822 1851.252 C 1822 1851.113, 1772.500 1851, 1712 1851 L 1602 1851 1602 1961.248" stroke="none" fill="#5f33e1" fill-rule="evenodd"></path>
</svg>